<svg width="229" height="44" viewBox="0 0 229 44" fill="none" xmlns="http://www.w3.org/2000/svg">
<mask id="path-1-outside-1" maskUnits="userSpaceOnUse" x="-0.0434341" y="0" width="201" height="44" fill="black">
<rect fill="white" x="-0.0434341" width="201" height="44"/>
<path d="M23.2206 30.52C22.5166 34.232 21.2366 37.08 19.3806 39.064C17.5246 41.048 15.2206 42.04 12.4686 42.04C9.87657 42.04 7.55657 41.016 5.50857 38.968C3.46057 36.952 2.27657 34.536 1.95657 31.72C2.91657 30.888 3.98857 30.232 5.17257 29.752C6.35657 29.24 7.66857 28.888 9.10857 28.696C9.55657 31.608 9.98857 33.528 10.4046 34.456C10.8526 35.384 11.4286 35.848 12.1326 35.848C13.0926 35.848 13.7806 35.176 14.1966 33.832C14.6126 32.456 14.8206 30.296 14.8206 27.352C14.8206 24.024 14.6926 20.264 14.4366 16.072C14.1806 11.88 13.8286 8.056 13.3806 4.6C14.1166 4.088 15.0766 3.688 16.2606 3.4C17.4446 3.112 18.6766 2.968 19.9566 2.968C20.8526 2.968 21.6686 3.016 22.4046 3.112C23.1406 3.208 23.8766 3.352 24.6126 3.544C24.6446 4.536 24.6766 5.656 24.7086 6.904C24.7406 8.12 24.7566 9.416 24.7566 10.792C24.7566 15.08 24.6446 18.68 24.4206 21.592C24.1966 24.472 23.7966 27.448 23.2206 30.52Z"/>
<path d="M49.4586 21.4C50.1946 22.424 50.7386 23.512 51.0906 24.664C51.4426 25.784 51.6186 27 51.6186 28.312C51.6186 31.608 50.4346 34.344 48.0666 36.52C45.6986 38.664 42.7866 39.736 39.3306 39.736C35.5226 39.736 32.3386 38.568 29.7786 36.232C27.2506 33.864 25.9866 31.064 25.9866 27.832C27.0106 27.32 28.2426 26.888 29.6826 26.536C31.1546 26.152 32.3706 25.96 33.3306 25.96C33.3306 28.392 33.7786 30.36 34.6746 31.864C35.6026 33.336 36.8506 34.072 38.4186 34.072C39.5386 34.072 40.4026 33.768 41.0106 33.16C41.6186 32.52 41.9226 31.656 41.9226 30.568C41.9226 29.64 41.6026 28.744 40.9626 27.88C40.3546 26.984 38.9786 25.72 36.8346 24.088C35.2346 22.872 34.0506 21.896 33.2826 21.16C32.5146 20.424 31.8586 19.704 31.3146 19C30.5466 17.912 29.9706 16.792 29.5866 15.64C29.2026 14.456 29.0106 13.192 29.0106 11.848C29.0106 8.648 30.1466 6.04 32.4186 4.024C34.7226 2.008 37.7306 1 41.4426 1C44.7386 1 47.3786 1.8 49.3626 3.4C51.3786 4.968 52.7066 7.304 53.3466 10.408C52.4186 11.016 51.3626 11.496 50.1786 11.848C48.9946 12.168 47.4426 12.392 45.5226 12.52C45.2346 10.536 44.7546 9.112 44.0826 8.248C43.4106 7.384 42.4826 6.952 41.2986 6.952C40.5626 6.952 39.9706 7.192 39.5226 7.672C39.1066 8.12 38.8986 8.728 38.8986 9.496C38.8986 10.552 39.2186 11.56 39.8586 12.52C40.4986 13.48 41.9066 14.776 44.0826 16.408C45.6826 17.592 46.8506 18.536 47.5866 19.24C48.3226 19.944 48.9466 20.664 49.4586 21.4Z"/>
<path d="M92.4328 20.92C92.4008 23.96 92.5448 26.952 92.8648 29.896C93.2168 32.808 93.7448 35.672 94.4488 38.488C93.4888 38.744 92.4168 38.952 91.2328 39.112C90.0808 39.272 88.7848 39.384 87.3448 39.448C86.9608 38.648 86.5928 37.832 86.2408 37C85.9208 36.136 85.6168 35.272 85.3288 34.408C84.1128 35.88 82.7368 36.984 81.2008 37.72C79.6648 38.456 77.9528 38.824 76.0648 38.824C72.7688 38.824 70.1448 37.608 68.1928 35.176C66.2728 32.744 65.3128 29.448 65.3128 25.288C65.3128 19.048 66.8168 13.784 69.8248 9.496C72.8328 5.208 76.6248 3.064 81.2008 3.064C84.3688 3.064 86.8968 3.992 88.7848 5.848C90.7048 7.672 91.8088 10.232 92.0968 13.528C90.6888 13.976 89.1848 14.312 87.5848 14.536C86.0168 14.76 84.2888 14.872 82.4008 14.872C82.0168 12.632 81.6008 11.064 81.1528 10.168C80.7048 9.272 80.1288 8.824 79.4248 8.824C78.2088 8.824 77.2328 10.056 76.4968 12.52C75.7608 14.984 75.3928 18.248 75.3928 22.312C75.3928 25.448 75.7128 27.736 76.3528 29.176C76.9928 30.616 78.0168 31.336 79.4248 31.336C80.3208 31.336 81.1368 31.048 81.8728 30.472C82.6088 29.864 83.2008 29.016 83.6488 27.928C83.4888 26.936 83.3448 25.944 83.2168 24.952C83.0888 23.96 82.9928 22.968 82.9288 21.976C84.2088 21.624 85.6008 21.368 87.1048 21.208C88.6408 21.016 90.4168 20.92 92.4328 20.92Z"/>
<path d="M133.607 33.064C133.607 33.96 133.607 34.856 133.607 35.752C133.639 36.616 133.687 37.656 133.751 38.872C132.855 39.128 131.639 39.352 130.103 39.544C128.567 39.736 127.143 39.832 125.831 39.832C125.351 36.344 124.919 31.864 124.535 26.392C124.183 20.92 124.007 16.328 124.007 12.616C124.743 12.232 125.783 11.928 127.127 11.704C128.471 11.48 129.847 11.368 131.255 11.368C131.895 11.368 132.519 11.4 133.127 11.464C133.735 11.528 134.343 11.624 134.951 11.752C134.791 12.904 134.679 13.736 134.615 14.248C134.551 14.76 134.503 15.272 134.471 15.784C135.399 14.44 136.455 13.432 137.639 12.76C138.823 12.088 140.119 11.752 141.527 11.752C143.767 11.752 145.463 12.568 146.615 14.2C147.767 15.8 148.343 18.184 148.343 21.352C148.343 23.848 148.135 26.728 147.719 29.992C147.303 33.224 146.871 35.672 146.423 37.336C145.175 37.336 143.799 37.272 142.295 37.144C140.791 36.984 139.063 36.744 137.111 36.424C137.655 33.416 138.071 30.616 138.359 28.024C138.679 25.4 138.839 23.272 138.839 21.64C138.839 20.744 138.711 20.088 138.455 19.672C138.199 19.224 137.799 19 137.255 19C136.647 19 136.055 19.352 135.479 20.056C134.903 20.76 134.391 21.736 133.943 22.984C133.815 25 133.719 26.856 133.655 28.552C133.623 30.216 133.607 31.72 133.607 33.064Z"/>
<path d="M186.113 38.296C182.721 38.296 180.145 37.16 178.385 34.888C176.625 32.616 175.745 29.352 175.745 25.096C175.745 22.76 175.985 20.328 176.465 17.8C176.977 15.24 177.473 13.496 177.953 12.568C178.689 12.376 179.425 12.232 180.161 12.136C180.929 12.04 181.633 11.992 182.273 11.992C183.265 11.992 184.113 12.056 184.817 12.184C185.553 12.312 186.113 12.488 186.497 12.712C186.209 14.44 185.985 16.2 185.825 17.992C185.665 19.784 185.585 21.512 185.585 23.176C185.585 26.12 185.761 28.424 186.113 30.088C186.465 31.72 186.961 32.536 187.601 32.536C188.209 32.536 188.689 31.592 189.041 29.704C189.393 27.816 189.569 25.352 189.569 22.312C189.569 20.872 189.505 19.384 189.377 17.848C189.249 16.28 189.121 15.192 188.993 14.584C190.209 14.072 191.713 13.672 193.505 13.384C195.297 13.064 197.041 12.904 198.737 12.904C198.897 13.64 199.009 14.584 199.073 15.736C199.169 16.888 199.217 18.136 199.217 19.48C199.217 25.624 198.113 30.296 195.905 33.496C193.697 36.696 190.433 38.296 186.113 38.296Z"/>
</mask>
<path d="M23.2206 30.52C22.5166 34.232 21.2366 37.08 19.3806 39.064C17.5246 41.048 15.2206 42.04 12.4686 42.04C9.87657 42.04 7.55657 41.016 5.50857 38.968C3.46057 36.952 2.27657 34.536 1.95657 31.72C2.91657 30.888 3.98857 30.232 5.17257 29.752C6.35657 29.24 7.66857 28.888 9.10857 28.696C9.55657 31.608 9.98857 33.528 10.4046 34.456C10.8526 35.384 11.4286 35.848 12.1326 35.848C13.0926 35.848 13.7806 35.176 14.1966 33.832C14.6126 32.456 14.8206 30.296 14.8206 27.352C14.8206 24.024 14.6926 20.264 14.4366 16.072C14.1806 11.88 13.8286 8.056 13.3806 4.6C14.1166 4.088 15.0766 3.688 16.2606 3.4C17.4446 3.112 18.6766 2.968 19.9566 2.968C20.8526 2.968 21.6686 3.016 22.4046 3.112C23.1406 3.208 23.8766 3.352 24.6126 3.544C24.6446 4.536 24.6766 5.656 24.7086 6.904C24.7406 8.12 24.7566 9.416 24.7566 10.792C24.7566 15.08 24.6446 18.68 24.4206 21.592C24.1966 24.472 23.7966 27.448 23.2206 30.52Z" fill="#E6D5B8"/>
<path d="M49.4586 21.4C50.1946 22.424 50.7386 23.512 51.0906 24.664C51.4426 25.784 51.6186 27 51.6186 28.312C51.6186 31.608 50.4346 34.344 48.0666 36.52C45.6986 38.664 42.7866 39.736 39.3306 39.736C35.5226 39.736 32.3386 38.568 29.7786 36.232C27.2506 33.864 25.9866 31.064 25.9866 27.832C27.0106 27.32 28.2426 26.888 29.6826 26.536C31.1546 26.152 32.3706 25.96 33.3306 25.96C33.3306 28.392 33.7786 30.36 34.6746 31.864C35.6026 33.336 36.8506 34.072 38.4186 34.072C39.5386 34.072 40.4026 33.768 41.0106 33.16C41.6186 32.52 41.9226 31.656 41.9226 30.568C41.9226 29.64 41.6026 28.744 40.9626 27.88C40.3546 26.984 38.9786 25.72 36.8346 24.088C35.2346 22.872 34.0506 21.896 33.2826 21.16C32.5146 20.424 31.8586 19.704 31.3146 19C30.5466 17.912 29.9706 16.792 29.5866 15.64C29.2026 14.456 29.0106 13.192 29.0106 11.848C29.0106 8.648 30.1466 6.04 32.4186 4.024C34.7226 2.008 37.7306 1 41.4426 1C44.7386 1 47.3786 1.8 49.3626 3.4C51.3786 4.968 52.7066 7.304 53.3466 10.408C52.4186 11.016 51.3626 11.496 50.1786 11.848C48.9946 12.168 47.4426 12.392 45.5226 12.52C45.2346 10.536 44.7546 9.112 44.0826 8.248C43.4106 7.384 42.4826 6.952 41.2986 6.952C40.5626 6.952 39.9706 7.192 39.5226 7.672C39.1066 8.12 38.8986 8.728 38.8986 9.496C38.8986 10.552 39.2186 11.56 39.8586 12.52C40.4986 13.48 41.9066 14.776 44.0826 16.408C45.6826 17.592 46.8506 18.536 47.5866 19.24C48.3226 19.944 48.9466 20.664 49.4586 21.4Z" fill="#E6D5B8"/>
<path d="M92.4328 20.92C92.4008 23.96 92.5448 26.952 92.8648 29.896C93.2168 32.808 93.7448 35.672 94.4488 38.488C93.4888 38.744 92.4168 38.952 91.2328 39.112C90.0808 39.272 88.7848 39.384 87.3448 39.448C86.9608 38.648 86.5928 37.832 86.2408 37C85.9208 36.136 85.6168 35.272 85.3288 34.408C84.1128 35.88 82.7368 36.984 81.2008 37.72C79.6648 38.456 77.9528 38.824 76.0648 38.824C72.7688 38.824 70.1448 37.608 68.1928 35.176C66.2728 32.744 65.3128 29.448 65.3128 25.288C65.3128 19.048 66.8168 13.784 69.8248 9.496C72.8328 5.208 76.6248 3.064 81.2008 3.064C84.3688 3.064 86.8968 3.992 88.7848 5.848C90.7048 7.672 91.8088 10.232 92.0968 13.528C90.6888 13.976 89.1848 14.312 87.5848 14.536C86.0168 14.76 84.2888 14.872 82.4008 14.872C82.0168 12.632 81.6008 11.064 81.1528 10.168C80.7048 9.272 80.1288 8.824 79.4248 8.824C78.2088 8.824 77.2328 10.056 76.4968 12.52C75.7608 14.984 75.3928 18.248 75.3928 22.312C75.3928 25.448 75.7128 27.736 76.3528 29.176C76.9928 30.616 78.0168 31.336 79.4248 31.336C80.3208 31.336 81.1368 31.048 81.8728 30.472C82.6088 29.864 83.2008 29.016 83.6488 27.928C83.4888 26.936 83.3448 25.944 83.2168 24.952C83.0888 23.96 82.9928 22.968 82.9288 21.976C84.2088 21.624 85.6008 21.368 87.1048 21.208C88.6408 21.016 90.4168 20.92 92.4328 20.92Z" fill="#E6D5B8"/>
<path d="M133.607 33.064C133.607 33.96 133.607 34.856 133.607 35.752C133.639 36.616 133.687 37.656 133.751 38.872C132.855 39.128 131.639 39.352 130.103 39.544C128.567 39.736 127.143 39.832 125.831 39.832C125.351 36.344 124.919 31.864 124.535 26.392C124.183 20.92 124.007 16.328 124.007 12.616C124.743 12.232 125.783 11.928 127.127 11.704C128.471 11.48 129.847 11.368 131.255 11.368C131.895 11.368 132.519 11.4 133.127 11.464C133.735 11.528 134.343 11.624 134.951 11.752C134.791 12.904 134.679 13.736 134.615 14.248C134.551 14.76 134.503 15.272 134.471 15.784C135.399 14.44 136.455 13.432 137.639 12.76C138.823 12.088 140.119 11.752 141.527 11.752C143.767 11.752 145.463 12.568 146.615 14.2C147.767 15.8 148.343 18.184 148.343 21.352C148.343 23.848 148.135 26.728 147.719 29.992C147.303 33.224 146.871 35.672 146.423 37.336C145.175 37.336 143.799 37.272 142.295 37.144C140.791 36.984 139.063 36.744 137.111 36.424C137.655 33.416 138.071 30.616 138.359 28.024C138.679 25.4 138.839 23.272 138.839 21.64C138.839 20.744 138.711 20.088 138.455 19.672C138.199 19.224 137.799 19 137.255 19C136.647 19 136.055 19.352 135.479 20.056C134.903 20.76 134.391 21.736 133.943 22.984C133.815 25 133.719 26.856 133.655 28.552C133.623 30.216 133.607 31.72 133.607 33.064Z" fill="#E6D5B8"/>
<path d="M186.113 38.296C182.721 38.296 180.145 37.16 178.385 34.888C176.625 32.616 175.745 29.352 175.745 25.096C175.745 22.76 175.985 20.328 176.465 17.8C176.977 15.24 177.473 13.496 177.953 12.568C178.689 12.376 179.425 12.232 180.161 12.136C180.929 12.04 181.633 11.992 182.273 11.992C183.265 11.992 184.113 12.056 184.817 12.184C185.553 12.312 186.113 12.488 186.497 12.712C186.209 14.44 185.985 16.2 185.825 17.992C185.665 19.784 185.585 21.512 185.585 23.176C185.585 26.12 185.761 28.424 186.113 30.088C186.465 31.72 186.961 32.536 187.601 32.536C188.209 32.536 188.689 31.592 189.041 29.704C189.393 27.816 189.569 25.352 189.569 22.312C189.569 20.872 189.505 19.384 189.377 17.848C189.249 16.28 189.121 15.192 188.993 14.584C190.209 14.072 191.713 13.672 193.505 13.384C195.297 13.064 197.041 12.904 198.737 12.904C198.897 13.64 199.009 14.584 199.073 15.736C199.169 16.888 199.217 18.136 199.217 19.48C199.217 25.624 198.113 30.296 195.905 33.496C193.697 36.696 190.433 38.296 186.113 38.296Z" fill="#E6D5B8"/>
<path d="M23.2206 30.52C22.5166 34.232 21.2366 37.08 19.3806 39.064C17.5246 41.048 15.2206 42.04 12.4686 42.04C9.87657 42.04 7.55657 41.016 5.50857 38.968C3.46057 36.952 2.27657 34.536 1.95657 31.72C2.91657 30.888 3.98857 30.232 5.17257 29.752C6.35657 29.24 7.66857 28.888 9.10857 28.696C9.55657 31.608 9.98857 33.528 10.4046 34.456C10.8526 35.384 11.4286 35.848 12.1326 35.848C13.0926 35.848 13.7806 35.176 14.1966 33.832C14.6126 32.456 14.8206 30.296 14.8206 27.352C14.8206 24.024 14.6926 20.264 14.4366 16.072C14.1806 11.88 13.8286 8.056 13.3806 4.6C14.1166 4.088 15.0766 3.688 16.2606 3.4C17.4446 3.112 18.6766 2.968 19.9566 2.968C20.8526 2.968 21.6686 3.016 22.4046 3.112C23.1406 3.208 23.8766 3.352 24.6126 3.544C24.6446 4.536 24.6766 5.656 24.7086 6.904C24.7406 8.12 24.7566 9.416 24.7566 10.792C24.7566 15.08 24.6446 18.68 24.4206 21.592C24.1966 24.472 23.7966 27.448 23.2206 30.52Z" stroke="black" stroke-width="2" mask="url(#path-1-outside-1)"/>
<path d="M49.4586 21.4C50.1946 22.424 50.7386 23.512 51.0906 24.664C51.4426 25.784 51.6186 27 51.6186 28.312C51.6186 31.608 50.4346 34.344 48.0666 36.52C45.6986 38.664 42.7866 39.736 39.3306 39.736C35.5226 39.736 32.3386 38.568 29.7786 36.232C27.2506 33.864 25.9866 31.064 25.9866 27.832C27.0106 27.32 28.2426 26.888 29.6826 26.536C31.1546 26.152 32.3706 25.96 33.3306 25.96C33.3306 28.392 33.7786 30.36 34.6746 31.864C35.6026 33.336 36.8506 34.072 38.4186 34.072C39.5386 34.072 40.4026 33.768 41.0106 33.16C41.6186 32.52 41.9226 31.656 41.9226 30.568C41.9226 29.64 41.6026 28.744 40.9626 27.88C40.3546 26.984 38.9786 25.72 36.8346 24.088C35.2346 22.872 34.0506 21.896 33.2826 21.16C32.5146 20.424 31.8586 19.704 31.3146 19C30.5466 17.912 29.9706 16.792 29.5866 15.64C29.2026 14.456 29.0106 13.192 29.0106 11.848C29.0106 8.648 30.1466 6.04 32.4186 4.024C34.7226 2.008 37.7306 1 41.4426 1C44.7386 1 47.3786 1.8 49.3626 3.4C51.3786 4.968 52.7066 7.304 53.3466 10.408C52.4186 11.016 51.3626 11.496 50.1786 11.848C48.9946 12.168 47.4426 12.392 45.5226 12.52C45.2346 10.536 44.7546 9.112 44.0826 8.248C43.4106 7.384 42.4826 6.952 41.2986 6.952C40.5626 6.952 39.9706 7.192 39.5226 7.672C39.1066 8.12 38.8986 8.728 38.8986 9.496C38.8986 10.552 39.2186 11.56 39.8586 12.52C40.4986 13.48 41.9066 14.776 44.0826 16.408C45.6826 17.592 46.8506 18.536 47.5866 19.24C48.3226 19.944 48.9466 20.664 49.4586 21.4Z" stroke="black" stroke-width="2" mask="url(#path-1-outside-1)"/>
<path d="M92.4328 20.92C92.4008 23.96 92.5448 26.952 92.8648 29.896C93.2168 32.808 93.7448 35.672 94.4488 38.488C93.4888 38.744 92.4168 38.952 91.2328 39.112C90.0808 39.272 88.7848 39.384 87.3448 39.448C86.9608 38.648 86.5928 37.832 86.2408 37C85.9208 36.136 85.6168 35.272 85.3288 34.408C84.1128 35.88 82.7368 36.984 81.2008 37.72C79.6648 38.456 77.9528 38.824 76.0648 38.824C72.7688 38.824 70.1448 37.608 68.1928 35.176C66.2728 32.744 65.3128 29.448 65.3128 25.288C65.3128 19.048 66.8168 13.784 69.8248 9.496C72.8328 5.208 76.6248 3.064 81.2008 3.064C84.3688 3.064 86.8968 3.992 88.7848 5.848C90.7048 7.672 91.8088 10.232 92.0968 13.528C90.6888 13.976 89.1848 14.312 87.5848 14.536C86.0168 14.76 84.2888 14.872 82.4008 14.872C82.0168 12.632 81.6008 11.064 81.1528 10.168C80.7048 9.272 80.1288 8.824 79.4248 8.824C78.2088 8.824 77.2328 10.056 76.4968 12.52C75.7608 14.984 75.3928 18.248 75.3928 22.312C75.3928 25.448 75.7128 27.736 76.3528 29.176C76.9928 30.616 78.0168 31.336 79.4248 31.336C80.3208 31.336 81.1368 31.048 81.8728 30.472C82.6088 29.864 83.2008 29.016 83.6488 27.928C83.4888 26.936 83.3448 25.944 83.2168 24.952C83.0888 23.96 82.9928 22.968 82.9288 21.976C84.2088 21.624 85.6008 21.368 87.1048 21.208C88.6408 21.016 90.4168 20.92 92.4328 20.92Z" stroke="black" stroke-width="2" mask="url(#path-1-outside-1)"/>
<path d="M133.607 33.064C133.607 33.96 133.607 34.856 133.607 35.752C133.639 36.616 133.687 37.656 133.751 38.872C132.855 39.128 131.639 39.352 130.103 39.544C128.567 39.736 127.143 39.832 125.831 39.832C125.351 36.344 124.919 31.864 124.535 26.392C124.183 20.92 124.007 16.328 124.007 12.616C124.743 12.232 125.783 11.928 127.127 11.704C128.471 11.48 129.847 11.368 131.255 11.368C131.895 11.368 132.519 11.4 133.127 11.464C133.735 11.528 134.343 11.624 134.951 11.752C134.791 12.904 134.679 13.736 134.615 14.248C134.551 14.76 134.503 15.272 134.471 15.784C135.399 14.44 136.455 13.432 137.639 12.76C138.823 12.088 140.119 11.752 141.527 11.752C143.767 11.752 145.463 12.568 146.615 14.2C147.767 15.8 148.343 18.184 148.343 21.352C148.343 23.848 148.135 26.728 147.719 29.992C147.303 33.224 146.871 35.672 146.423 37.336C145.175 37.336 143.799 37.272 142.295 37.144C140.791 36.984 139.063 36.744 137.111 36.424C137.655 33.416 138.071 30.616 138.359 28.024C138.679 25.4 138.839 23.272 138.839 21.64C138.839 20.744 138.711 20.088 138.455 19.672C138.199 19.224 137.799 19 137.255 19C136.647 19 136.055 19.352 135.479 20.056C134.903 20.76 134.391 21.736 133.943 22.984C133.815 25 133.719 26.856 133.655 28.552C133.623 30.216 133.607 31.72 133.607 33.064Z" stroke="black" stroke-width="2" mask="url(#path-1-outside-1)"/>
<path d="M186.113 38.296C182.721 38.296 180.145 37.16 178.385 34.888C176.625 32.616 175.745 29.352 175.745 25.096C175.745 22.76 175.985 20.328 176.465 17.8C176.977 15.24 177.473 13.496 177.953 12.568C178.689 12.376 179.425 12.232 180.161 12.136C180.929 12.04 181.633 11.992 182.273 11.992C183.265 11.992 184.113 12.056 184.817 12.184C185.553 12.312 186.113 12.488 186.497 12.712C186.209 14.44 185.985 16.2 185.825 17.992C185.665 19.784 185.585 21.512 185.585 23.176C185.585 26.12 185.761 28.424 186.113 30.088C186.465 31.72 186.961 32.536 187.601 32.536C188.209 32.536 188.689 31.592 189.041 29.704C189.393 27.816 189.569 25.352 189.569 22.312C189.569 20.872 189.505 19.384 189.377 17.848C189.249 16.28 189.121 15.192 188.993 14.584C190.209 14.072 191.713 13.672 193.505 13.384C195.297 13.064 197.041 12.904 198.737 12.904C198.897 13.64 199.009 14.584 199.073 15.736C199.169 16.888 199.217 18.136 199.217 19.48C199.217 25.624 198.113 30.296 195.905 33.496C193.697 36.696 190.433 38.296 186.113 38.296Z" stroke="black" stroke-width="2" mask="url(#path-1-outside-1)"/>
<path d="M116.839 37.5683L116.842 37.566C119.492 35.2136 120.85 32.4435 120.85 29.272C120.85 27.0715 120.117 25.2146 118.643 23.7385C117.379 22.4156 115.531 21.3604 113.139 20.5497C114.29 19.697 115.315 18.8742 116.214 18.0813C117.356 17.1023 118.73 15.7262 120.336 13.9603L120.466 13.8173V13.624C120.466 12.0936 120.336 10.6247 120.074 9.21807C119.845 7.81327 119.5 6.54528 119.036 5.41763L118.907 5.10511L118.569 5.10802C114.834 5.14022 110.781 5.4461 106.412 6.02432L106.412 6.02439C102.077 6.60229 98.5735 7.31105 95.9106 8.15538L95.5617 8.266V8.632C95.5617 9.99587 95.6429 11.3286 95.8056 12.63L95.8054 12.63L95.8072 12.6422C96.0024 13.9436 96.2648 15.065 96.5988 16.0002L96.7455 16.4109L97.1723 16.3214C99.1467 15.9074 101.105 15.5571 103.047 15.2706L103.047 15.2707L103.055 15.2694C104.487 15.0346 105.901 14.8433 107.298 14.6953C106.729 15.1923 106.131 15.6784 105.504 16.1535L105.504 16.1534L105.498 16.158C104.489 16.9462 103.4 17.7041 102.23 18.4314L101.994 18.5781V18.856C101.994 19.8582 102.026 20.7525 102.091 21.5375L102.092 21.5491L102.094 21.5607C102.194 22.3261 102.407 23.3406 102.729 24.5962L102.819 24.9458L103.179 24.9708C105.404 25.1253 107.054 25.7844 108.193 26.8941L108.193 26.8941L108.197 26.8985C109.369 28.0113 109.962 29.4437 109.962 31.24C109.962 32.5427 109.758 33.4608 109.41 34.0532C109.082 34.5801 108.649 34.82 108.062 34.82C107.432 34.82 106.766 34.4022 106.098 33.2521C105.479 32.0992 105.154 30.6056 105.154 28.744V28.244H104.654C102.807 28.244 101.143 28.3896 99.6649 28.6847C98.186 28.948 96.845 29.3773 95.6461 29.9768L95.3543 30.1227L95.3703 30.4485C95.5353 33.8156 96.6645 36.4539 98.8078 38.2912C100.972 40.1509 103.9 41.052 107.534 41.052C111.078 41.052 114.187 39.8886 116.839 37.5683ZM167.156 39.664L167.425 39.5427L167.449 39.2482C167.927 33.315 168.741 27.3654 169.889 21.3992C171.072 15.3915 172.233 10.9305 173.369 7.9965L173.479 7.71267L173.277 7.48471C172.509 6.61665 171.625 5.8662 170.626 5.23359C169.63 4.60248 168.537 4.0896 167.349 3.69366L167.101 3.61125L166.892 3.7667C164.541 5.51463 162.029 7.16811 159.357 8.72694C156.684 10.2539 153.884 11.6701 150.955 12.9753L150.519 13.1696L150.693 13.6142C151.283 15.1231 152.023 16.4894 152.915 17.7107L152.915 17.7108L152.92 17.7177C153.843 18.9378 154.9 19.9951 156.091 20.888L156.353 21.0851L156.639 20.9221C157.327 20.5288 158.187 19.9769 159.215 19.2701C159.487 19.0884 159.727 18.9293 159.932 18.7928C159.415 21.924 159.013 24.8395 158.725 27.5391L158.725 27.5438C158.436 30.5309 158.291 33.1556 158.291 35.416V35.4235V35.431V35.4385V35.4459V35.4534V35.4609V35.4683V35.4757V35.4832V35.4906V35.498V35.5054V35.5128V35.5202V35.5276V35.535V35.5423V35.5497V35.557V35.5644V35.5717V35.5791V35.5864V35.5937V35.601V35.6083V35.6156V35.6228V35.6301V35.6374V35.6446V35.6519V35.6591V35.6663V35.6736V35.6808V35.688V35.6952V35.7024V35.7096V35.7167V35.7239V35.7311V35.7382V35.7453V35.7525V35.7596V35.7667V35.7738V35.7809V35.788V35.7951V35.8022V35.8093V35.8163V35.8234V35.8304V35.8375V35.8445V35.8515V35.8585V35.8655V35.8725V35.8795V35.8865V35.8935V35.9004V35.9074V35.9143V35.9213V35.9282V35.9351V35.942V35.9489V35.9558V35.9627V35.9696V35.9765V35.9834V35.9902V35.9971V36.0039V36.0107V36.0176V36.0244V36.0312V36.038V36.0448V36.0516V36.0584V36.0651V36.0719V36.0787V36.0854V36.0921V36.0989V36.1056V36.1123V36.119V36.1257V36.1324V36.1391V36.1458V36.1524V36.1591V36.1657V36.1724V36.179V36.1856V36.1923V36.1989V36.2055V36.2121V36.2186V36.2252V36.2318V36.2384V36.2449V36.2515V36.258V36.2645V36.271V36.2776V36.2841V36.2906V36.297V36.3035V36.31V36.3165V36.3229V36.3294V36.3358V36.3422V36.3487V36.3551V36.3615V36.3679V36.3743V36.3807V36.387V36.3934V36.3998V36.4061V36.4125V36.4188V36.4251V36.4315V36.4378V36.4441V36.4504V36.4566V36.4629V36.4692V36.4755V36.4817V36.488V36.4942V36.5004V36.5067V36.5129V36.5191V36.5253V36.5315V36.5377V36.5438V36.55V36.5562V36.5623V36.5684V36.5746V36.5807V36.5868V36.5929V36.599V36.6051V36.6112V36.6173V36.6234V36.6294V36.6355V36.6415V36.6476V36.6536V36.6596V36.6656V36.6716V36.6776V36.6836V36.6896V36.6956V36.7015V36.7075V36.7135V36.7194V36.7253V36.7312V36.7372V36.7431V36.749V36.7549V36.7608V36.7666V36.7725V36.7784V36.7842V36.7901V36.7959V36.8017V36.8075V36.8134V36.8192V36.825V36.8307V36.8365V36.8423V36.8481V36.8538V36.8596V36.8653V36.871V36.8768V36.8825V36.8882V36.8939V36.8996V36.9053V36.9109V36.9166V36.9223V36.9279V36.9335V36.9392V36.9448V36.9504V36.956V36.9616V36.9672V36.9728V36.9784V36.984V36.9895V36.9951V37.0006V37.0062V37.0117V37.0172V37.0227V37.0282V37.0337V37.0392V37.0447V37.0502V37.0557V37.0611V37.0666V37.072V37.0774V37.0829V37.0883V37.0937V37.0991V37.1045V37.1099V37.1152V37.1206V37.126V37.1313V37.1367V37.142V37.1473V37.1527V37.158V37.1633V37.1686V37.1739V37.1791V37.1844V37.1897V37.1949V37.2002V37.2054V37.2107V37.2159V37.2211V37.2263V37.2315V37.2367V37.2419V37.2471V37.2522V37.2574V37.2625V37.2677V37.2728V37.2779V37.2831V37.2882V37.2933V37.2984V37.3035V37.3085V37.3136V37.3187V37.3237V37.3288V37.3338V37.3388V37.3439V37.3489V37.3539V37.3589V37.3639V37.3689V37.3738V37.3788V37.3837V37.3887V37.3936V37.3986V37.4035V37.4084V37.4133V37.4182V37.4231V37.428V37.4329V37.4378V37.4426V37.4475V37.4523V37.4572V37.462V37.4668V37.4716V37.4764V37.4812V37.486V37.4908V37.4956V37.5003V37.5051V37.5098V37.5146V37.5193V37.524V37.5287V37.5335V37.5382V37.5428V37.5475V37.5522V37.5569V37.5615V37.5662V37.5708V37.5755V37.5801V37.5847V37.5893V37.5939V37.5985V37.6031V37.6077V37.6123V37.6168V37.6214V37.6259V37.6305V37.635V37.6395V37.644V37.6485V37.653V37.6575V37.662V37.6665V37.671V37.6754V37.6799V37.6843V37.6887V37.6932V37.6976V37.702V37.7064V37.7108V37.7152V37.7196V37.7239V37.7283V37.7326V37.737V37.7413V37.7457V37.75V37.7543V37.7586V37.7629V37.7672V37.7715V37.7757V37.78V37.7843V37.7885V37.7928V37.797V37.8012V37.8054V37.8096V37.8138V37.818V37.8222V37.8264V37.8306V37.8347V37.8389V37.843V37.8472V37.8513V37.8554V37.8595V37.8636V37.8677V37.8718V37.8759V37.88V37.884V37.8881V37.8921V37.8962V37.9002V37.9042V37.9082V37.9122V37.9162V37.9202V37.9242V37.9282V37.9322V37.9361V37.9401V37.944V37.9479V37.9519V37.9558V37.9597V37.9636V37.9675V37.9714V37.9753V37.9791V37.983V37.9869V37.9907V37.9945V37.9984V38.0022V38.006V38.0098V38.0136V38.0174V38.0212V38.025V38.0287V38.0325V38.0362V38.04V38.0437V38.0474V38.0511V38.0549V38.0586V38.0622V38.0659V38.0696V38.0733V38.0769V38.0806V38.0842V38.0879V38.0915V38.0951V38.0987V38.1023V38.1059V38.1095V38.1131V38.1167V38.1202V38.1238V38.1273V38.1309V38.1344V38.1379V38.1415V38.145V38.1485V38.152V38.1554V38.1589V38.1624V38.1658V38.1693V38.1727V38.1762V38.1796V38.183V38.1864V38.1898V38.1932V38.1966V38.2V38.2132L158.291 38.2263C158.324 38.8444 158.373 39.388 158.44 39.8547L158.484 40.1686L158.788 40.2619C159.232 40.3986 159.679 40.4855 160.128 40.5213C160.603 40.5881 161.167 40.62 161.815 40.62C162.864 40.62 163.838 40.5381 164.736 40.3719C165.661 40.2067 166.47 39.9728 167.156 39.664ZM222.792 36.444L222.794 36.4416C225.262 33.9737 226.492 30.8837 226.492 27.208C226.492 24.2096 225.521 21.7239 223.559 19.7954C221.597 17.8672 219.065 16.916 216.008 16.916C215.48 16.916 214.906 16.9488 214.289 17.0134C213.929 17.0327 213.596 17.0631 213.292 17.1056V17.1032V17.1005V17.0978V17.0951V17.0924V17.0897V17.087V17.0843V17.0816V17.0789V17.0761V17.0734V17.0707V17.068V17.0653V17.0626V17.0598V17.0571V17.0544V17.0517V17.0489V17.0462V17.0435V17.0407V17.038V17.0352V17.0325V17.0298V17.027V17.0243V17.0215V17.0188V17.016V17.0133V17.0105V17.0077V17.005V17.0022V16.9995V16.9967V16.9939V16.9912V16.9884V16.9856V16.9828V16.9801V16.9773V16.9745V16.9717V16.9689V16.9662V16.9634V16.9606V16.9578V16.955V16.9522V16.9494V16.9466V16.9438V16.941V16.9382V16.9354V16.9326V16.9298V16.927V16.9242V16.9213V16.9185V16.9157V16.9129V16.9101V16.9072V16.9044V16.9016V16.8988V16.8959V16.8931V16.8903V16.8874V16.8846V16.8817V16.8789V16.876V16.8732V16.8704V16.8675V16.8647V16.8618V16.8589V16.8561V16.8532V16.8504V16.8475V16.8446V16.8418V16.8389V16.836V16.8332V16.8303V16.8274V16.8245V16.8217V16.8188V16.8159V16.813V16.8101V16.8072V16.8043V16.8015V16.7986V16.7957V16.7928V16.7899V16.787V16.7841V16.7812V16.7783V16.7753V16.7724V16.7695V16.7666V16.7637V16.7608V16.7579V16.7549V16.752V16.7491V16.7462V16.7432V16.7403V16.7374V16.7344V16.7315V16.7286V16.7256V16.7227V16.7197V16.7168V16.7139V16.7109V16.708V16.705V16.702V16.6991V16.6961V16.6932V16.6902V16.6872V16.6843V16.6813V16.6783V16.6754V16.6724V16.6694V16.6665V16.6635V16.6605V16.6575V16.6545V16.6515V16.6486V16.6456V16.6426V16.6396V16.6366V16.6336V16.6306V16.6276V16.6246V16.6216V16.6186V16.6156V16.6126V16.6096V16.6066V16.6035V16.6005V16.5975V16.5945V16.5915V16.5884V16.5854V16.5824V16.5794V16.5763V16.5733V16.5703V16.5672V16.5642V16.5611V16.5581V16.5551V16.552V16.549V16.5459V16.5429V16.5398V16.5368V16.5337V16.5306V16.5276V16.5245V16.5215V16.5184V16.5153V16.5122V16.5092V16.5061V16.503V16.5V16.4969V16.4938V16.4907V16.4876V16.4845V16.4815V16.4784V16.4753V16.4722V16.4691V16.466V16.4629V16.4598V16.4567V16.4536V16.4505V16.4474V16.4443V16.4411V16.438V16.4349V16.4318V16.4287V16.4256V16.4224V16.4193V16.4162V16.4131V16.4099V16.4068V16.4037V16.4005V16.3974V16.3943V16.3911V16.388V16.3848V16.3817V16.3785V16.3754V16.3722V16.3691V16.3659V16.3628V16.3596V16.3564V16.3533V16.3501V16.347V16.3438V16.3406V16.3374V16.3343V16.3311V16.3279V16.3267C213.319 15.8686 213.357 15.1894 213.406 14.2896C215.723 14.6065 217.806 14.8546 219.656 15.0337L219.656 15.0337L219.664 15.0344C221.659 15.1953 223.67 15.2918 225.697 15.3239L226.037 15.3293L226.167 15.0144C226.631 13.8867 226.976 12.6187 227.205 11.2139C227.466 9.80731 227.596 8.33842 227.596 6.808V6.308H227.096C222.789 6.308 218.999 6.14847 215.723 5.83057C212.448 5.48067 208.962 4.90783 205.266 4.11122L204.749 3.99992L204.667 4.52171C204.249 7.15547 203.943 9.59949 203.75 11.8533C203.557 14.0733 203.46 16.1517 203.46 18.088V18.0934V18.0989V18.1043V18.1097V18.1151V18.1205V18.1259V18.1313V18.1367V18.1421V18.1475V18.1529V18.1583V18.1636V18.169V18.1743V18.1797V18.185V18.1904V18.1957V18.2011V18.2064V18.2117V18.217V18.2223V18.2276V18.2329V18.2382V18.2435V18.2488V18.2541V18.2594V18.2646V18.2699V18.2752V18.2804V18.2857V18.2909V18.2962V18.3014V18.3066V18.3119V18.3171V18.3223V18.3275V18.3327V18.3379V18.3431V18.3483V18.3535V18.3586V18.3638V18.369V18.3742V18.3793V18.3845V18.3896V18.3948V18.3999V18.405V18.4101V18.4153V18.4204V18.4255V18.4306V18.4357V18.4408V18.4459V18.451V18.4561V18.4611V18.4662V18.4713V18.4763V18.4814V18.4864V18.4915V18.4965V18.5016V18.5066V18.5116V18.5166V18.5217V18.5267V18.5317V18.5367V18.5417V18.5466V18.5516V18.5566V18.5616V18.5666V18.5715V18.5765V18.5814V18.5864V18.5913V18.5963V18.6012V18.6061V18.611V18.616V18.6209V18.6258V18.6307V18.6356V18.6405V18.6454V18.6502V18.6551V18.66V18.6648V18.6697V18.6746V18.6794V18.6843V18.6891V18.6939V18.6988V18.7036V18.7084V18.7132V18.718V18.7228V18.7276V18.7324V18.7372V18.742V18.7468V18.7516V18.7563V18.7611V18.7658V18.7706V18.7753V18.7801V18.7848V18.7896V18.7943V18.799V18.8037V18.8084V18.8131V18.8178V18.8225V18.8272V18.8319V18.8366V18.8413V18.8459V18.8506V18.8553V18.8599V18.8646V18.8692V18.8739V18.8785V18.8831V18.8878V18.8924V18.897V18.9016V18.9062V18.9108V18.9154V18.92V18.9246V18.9291V18.9337V18.9383V18.9429V18.9474V18.952V18.9565V18.9611V18.9656V18.9701V18.9747V18.9792V18.9837V18.9882V18.9927V18.9972V19.0017V19.0062V19.0107V19.0152V19.0196V19.0241V19.0286V19.033V19.0375V19.042V19.0464V19.0508V19.0553V19.0597V19.0641V19.0685V19.073V19.0774V19.0818V19.0862V19.0906V19.095V19.0993V19.1037V19.1081V19.1125V19.1168V19.1212V19.1255V19.1299V19.1342V19.1386V19.1429V19.1472V19.1515V19.1559V19.1602V19.1645V19.1688V19.1731V19.1774V19.1817V19.1859V19.1902V19.1945V19.1988V19.203V19.2073V19.2115V19.2158V19.22V19.2242V19.2285V19.2327V19.2369V19.2411V19.2453V19.2495V19.2537V19.2579V19.2621V19.2663V19.2705V19.2747V19.2788V19.283V19.2872V19.2913V19.2955V19.2996V19.3037V19.3079V19.312V19.3161V19.3202V19.3244V19.3285V19.3326V19.3367V19.3407V19.3448V19.3489V19.353V19.3571V19.3611V19.3652V19.3692V19.3733V19.3773V19.3814V19.3854V19.3895V19.3935V19.3975V19.4015V19.4055V19.4095V19.4135V19.4175V19.4215V19.4255V19.4295V19.4334V19.4374V19.4414V19.4453V19.4493V19.4532V19.4572V19.4611V19.465V19.469V19.4729V19.4768V19.4807V19.4846V19.4885V19.4924V19.4963V19.5002V19.5041V19.508V19.5118V19.5157V19.5196V19.5234V19.5273V19.5311V19.535V19.5388V19.5426V19.5465V19.5503V19.5541V19.5579V19.5617V19.5655V19.5693V19.5731V19.5769V19.5806V19.5844V19.5882V19.592V19.5957V19.5995V19.6032V19.607V19.6107V19.6144V19.6182V19.6219V19.6256V19.6293V19.633V19.6367V19.6404V19.6441V19.6478V19.6515V19.6551V19.6588V19.6625V19.6661V19.6698V19.6735V19.6771V19.6807V19.6844V19.688V19.6916V19.6953V19.6989V19.7025V19.7061V19.7097V19.7133V19.7169V19.7204V19.724V19.7276V19.7312V19.7347V19.7383V19.7418V19.7454V19.7489V19.7525V19.756V19.7595V19.7631V19.7666V19.7701V19.7736V19.7771V19.7806V19.7841V19.7876V19.7911V19.7945V19.798V19.8015V19.8049V19.8084V19.8118V19.8153V19.8187V19.8222V19.8256V19.829V19.8324V19.8358V19.8393V19.8427V19.8461V19.8495V19.8528V19.8562V19.8596V19.863V19.8664V19.8697V19.8731V19.8764V19.8798V19.8831V19.8865V19.8898V19.8931V19.8964V19.8998V19.9031V19.9064V19.9097V19.913V19.9163V19.9196V19.9228V19.9261V19.9294V19.9326V19.9359V19.9392V19.9424V19.9457V19.9489V19.9521V19.9554V19.9586V19.9618V19.965V19.9682V19.9714V19.9746V19.9778V19.981V19.9842V19.9874V19.9906V19.9937V19.9969V20.0001V20.0032V20.0064V20.0095V20.0126V20.0158V20.0189V20.022V20.0251V20.0283V20.0314V20.0345V20.0376V20.0407V20.0437V20.0468V20.0499V20.053V20.056V20.0591V20.0622V20.0652V20.0682V20.0713V20.0743V20.0774V20.0804V20.0834V20.0864V20.0894V20.0924V20.0954V20.0984V20.1014V20.1044V20.1074V20.1103V20.1133V20.1163V20.1192V20.1222V20.1251V20.1281V20.131V20.134V20.1369V20.1398V20.1427V20.1456V20.1485V20.1514V20.1543V20.1572V20.1601V20.163V20.1659V20.1688V20.1716V20.1745V20.1773V20.1802V20.183V20.1859V20.1887V20.1915V20.1944V20.1972V20.2V20.2178L203.462 20.2356C203.494 20.6853 203.526 21.1033 203.558 21.4895L203.569 21.618L203.64 21.7254C203.929 22.1581 204.443 22.7178 205.151 23.3937L205.151 23.3938L205.159 23.4012C205.903 24.08 206.532 24.5954 207.043 24.936L207.242 25.069L207.471 24.9968C208.063 24.8099 208.602 24.6715 209.09 24.5799C209.608 24.4886 210.09 24.444 210.536 24.444C212.106 24.444 213.304 24.9701 214.19 25.9983L214.194 26.0039L214.199 26.0094C215.126 27.0226 215.604 28.3356 215.604 29.992C215.604 31.3866 215.354 32.3552 214.926 32.9705L214.922 32.9766L214.918 32.9829C214.54 33.5625 213.986 33.86 213.176 33.86C212.451 33.86 211.886 33.5293 211.451 32.7679C211.001 31.9803 210.748 30.8009 210.748 29.176V28.7818L210.365 28.6898C208.748 28.3016 207.145 28.0102 205.558 27.8158C204.002 27.6213 202.462 27.524 200.936 27.524H200.41L200.437 28.0498C200.634 31.8552 201.837 34.8543 204.098 36.9803L204.104 36.9855C206.394 39.0737 209.47 40.092 213.272 40.092C217.13 40.092 220.318 38.8842 222.792 36.444Z" fill="#1F6F8B" stroke="black"/>
</svg>
